<svg id="visual" viewBox="0 0 900 600" width="900" height="600" xmlns="http://www.w3.org/2000/svg" xmlns:xlink="http://www.w3.org/1999/xlink" version="1.1"><rect x="0" y="0" width="900" height="600" fill="#fcfcfc"></rect><defs><linearGradient id="grad1_0" x1="33.3%" y1="100%" x2="100%" y2="0%"><stop offset="20%" stop-color="#fcfcfc" stop-opacity="1"></stop><stop offset="80%" stop-color="#fcfcfc" stop-opacity="1"></stop></linearGradient></defs><defs><linearGradient id="grad2_0" x1="0%" y1="100%" x2="66.7%" y2="0%"><stop offset="20%" stop-color="#fcfcfc" stop-opacity="1"></stop><stop offset="80%" stop-color="#fcfcfc" stop-opacity="1"></stop></linearGradient></defs><g transform="translate(900, 600)"><path d="M-378.6 0C-378.2 -54.4 -377.7 -108.8 -349.8 -144.9C-321.8 -181 -266.3 -198.9 -228.4 -228.4C-190.5 -257.9 -170.2 -299.2 -135.1 -326.1C-100 -353.1 -50 -365.8 0 -378.6L0 0Z" fill="#FBAE3C"></path></g><g transform="translate(0, 0)"><path d="M378.6 0C374.6 51.2 370.6 102.5 349.8 144.9C328.9 187.3 291.2 220.9 255.3 255.3C219.4 289.7 185.4 324.8 143.1 345.5C100.9 366.2 50.4 372.4 0 378.6L0 0Z" fill="#FBAE3C"></path></g></svg>